<svg width="42" height="32" viewBox="0 0 42 32" fill="none" xmlns="http://www.w3.org/2000/svg">
<path d="M1.39453 16.2843V8.93217C1.39453 7.57867 2.49176 6.48147 3.84523 6.48147H13.648M1.39453 16.2843V28.5377C1.39453 29.8913 2.49176 30.9884 3.84523 30.9884H38.155C39.5085 30.9884 40.6057 29.8913 40.6057 28.5377V16.2843M1.39453 16.2843L18.5494 18.735H23.4508L40.6057 16.2843M13.648 6.48147V4.03078C13.648 2.6773 14.7452 1.58008 16.0987 1.58008H25.9015C27.255 1.58008 28.3522 2.6773 28.3522 4.03078V6.48147M13.648 6.48147H28.3522M40.6057 16.2843V8.93217C40.6057 7.57867 39.5085 6.48147 38.155 6.48147H28.3522M18.5494 22.411H23.4508" stroke="url(#paint0_linear_1_1972)" stroke-width="2" stroke-linecap="round" stroke-linejoin="round"/>
<defs>
<linearGradient id="paint0_linear_1_1972" x1="21.0001" y1="1.58008" x2="21.0001" y2="30.9884" gradientUnits="userSpaceOnUse">
<stop stop-color="#C8F169"/>
<stop offset="1" stop-color="#069496"/>
</linearGradient>
</defs>
</svg>
