<svg width="30" height="31" viewBox="0 0 30 31" fill="none" xmlns="http://www.w3.org/2000/svg">
<g clip-path="url(#clip0_1_1408)">
<path d="M23.7091 19.2033C23.0949 18.5424 22.3541 18.1891 21.569 18.1891C20.7902 18.1891 20.0431 18.5359 19.4036 19.1967L17.4027 21.2577C17.2381 21.1661 17.0735 21.081 16.9152 20.996C16.6873 20.8782 16.472 20.767 16.2884 20.6492C14.4142 19.4192 12.7109 17.8162 11.0774 15.7421C10.2859 14.7084 9.75404 13.8382 9.36781 12.9549C9.88701 12.4642 10.3682 11.9539 10.8368 11.4632C11.0141 11.28 11.1913 11.0902 11.3686 10.907C12.6983 9.53306 12.6983 7.75343 11.3686 6.37945L9.64007 4.59327C9.44379 4.39045 9.24117 4.18108 9.05122 3.97171C8.67132 3.56606 8.27242 3.14732 7.86086 2.75475C7.24669 2.12665 6.51221 1.79297 5.73974 1.79297C4.96727 1.79297 4.22013 2.12665 3.58696 2.75475C3.58063 2.7613 3.58063 2.7613 3.5743 2.76784L1.42152 5.01201C0.61106 5.84948 0.148846 6.87015 0.0475384 8.05439C-0.104423 9.96488 0.440104 11.7445 0.857997 12.9091C1.88373 15.7683 3.41601 18.4181 5.70175 21.2577C8.47504 24.6796 11.8118 27.3817 15.6235 29.2857C17.0798 29.9988 19.0237 30.8428 21.1954 30.9868C21.3284 30.9933 21.4677 30.9999 21.5943 30.9999C23.057 30.9999 24.2853 30.4568 25.2477 29.3773C25.2541 29.3642 25.2667 29.3576 25.2731 29.3445C25.6023 28.9323 25.9822 28.5594 26.3811 28.1603C26.6534 27.892 26.932 27.6107 27.2042 27.3163C27.8311 26.6424 28.1603 25.8572 28.1603 25.0525C28.1603 24.2412 27.8247 23.4626 27.1852 22.8083L23.7091 19.2033ZM25.9759 26.0928C25.9695 26.0928 25.9695 26.0993 25.9759 26.0928C25.7289 26.3676 25.4757 26.6162 25.2034 26.891C24.7918 27.2967 24.374 27.7219 23.9814 28.1996C23.3419 28.9062 22.5884 29.2399 21.6007 29.2399C21.5057 29.2399 21.4044 29.2399 21.3094 29.2333C19.4289 29.109 17.6813 28.35 16.3707 27.7023C12.7869 25.9096 9.64007 23.3645 7.02508 20.1389C4.86597 17.4498 3.42234 14.9635 2.46625 12.2941C1.8774 10.665 1.66212 9.39566 1.7571 8.19833C1.82042 7.43283 2.10534 6.79818 2.63087 6.25513L4.78999 4.02405C5.10024 3.72308 5.42949 3.55951 5.75241 3.55951C6.1513 3.55951 6.47422 3.80814 6.67683 4.01751C6.68317 4.02405 6.6895 4.03059 6.69583 4.03714C7.08206 4.41007 7.4493 4.7961 7.83554 5.20829C8.03182 5.41766 8.23443 5.62703 8.43705 5.84294L10.1656 7.62911C10.8368 8.32265 10.8368 8.96384 10.1656 9.65737C9.98198 9.84711 9.8047 10.0368 9.62108 10.22C9.08921 10.7827 8.58268 11.3061 8.03182 11.8165C8.01916 11.8296 8.00649 11.8361 8.00016 11.8492C7.45563 12.4119 7.55694 12.9615 7.67091 13.3344C7.67724 13.354 7.68358 13.3737 7.68991 13.3933C8.13946 14.5186 8.77263 15.5786 9.73505 16.8413L9.74138 16.8479C11.4889 19.0724 13.3315 20.8062 15.3639 22.1344C15.6235 22.3045 15.8895 22.4419 16.1427 22.5728C16.3707 22.6906 16.586 22.8018 16.7696 22.9195C16.7949 22.9326 16.8202 22.9523 16.8456 22.9653C17.0608 23.0766 17.2634 23.1289 17.4724 23.1289C17.9979 23.1289 18.3272 22.7887 18.4348 22.6775L20.6003 20.4398C20.8155 20.2174 21.1574 19.9491 21.5563 19.9491C21.9489 19.9491 22.2718 20.2043 22.4681 20.4268C22.4744 20.4333 22.4744 20.4333 22.4808 20.4398L25.9695 24.0449C26.6217 24.7123 26.6217 25.3993 25.9759 26.0928Z" fill="#144443"/>
<path d="M16.2114 7.37427C17.8703 7.66215 19.3773 8.47345 20.5803 9.71658C21.7833 10.9597 22.5621 12.5169 22.847 14.2311C22.9167 14.6629 23.2776 14.9639 23.6892 14.9639C23.7398 14.9639 23.7841 14.9573 23.8348 14.9508C24.3033 14.8723 24.6136 14.4143 24.5376 13.9301C24.1957 11.8561 23.2459 9.9652 21.796 8.46691C20.346 6.96862 18.5161 5.9872 16.509 5.6339C16.0405 5.55538 15.6036 5.87598 15.5213 6.3536C15.4389 6.83122 15.7429 7.29576 16.2114 7.37427Z" fill="#144443"/>
<path d="M29.9654 13.6748C29.4019 10.2594 27.8443 7.15162 25.4509 4.67846C23.0575 2.20529 20.05 0.595772 16.7448 0.013466C16.2826 -0.0715899 15.8457 0.255548 15.7634 0.73317C15.6874 1.21733 15.9977 1.66878 16.4662 1.75384C19.4168 2.27072 22.1078 3.71667 24.2479 5.92158C26.388 8.13303 27.781 10.9137 28.2812 13.9626C28.3508 14.3945 28.7117 14.6954 29.1233 14.6954C29.1739 14.6954 29.2183 14.6889 29.2689 14.6823C29.7311 14.6104 30.0477 14.1524 29.9654 13.6748Z" fill="#144443"/>
</g>
<defs>
<clipPath id="clip0_1_1408">
<rect width="30" height="31" fill="white"/>
</clipPath>
</defs>
</svg>
