<svg width="30" height="30" viewBox="0 0 30 30" fill="none" xmlns="http://www.w3.org/2000/svg">
<g clip-path="url(#clip0_1_1418)">
<path fill-rule="evenodd" clip-rule="evenodd" d="M15 19.365L1.875 9.375L14.9812 2.18531L28.125 9.375L15 19.365ZM28.125 26.25C28.125 26.4403 28.0885 26.6203 28.036 26.7919L19.6266 18.3816L28.125 11.6016V26.25ZM3.33378 28.0744L11.9456 19.4625L15 21.5625L18.0544 19.4625L26.6662 28.0744C26.5322 28.1053 3.46784 28.1053 3.33378 28.0744ZM1.875 26.25V11.6016L10.3744 18.3816L1.96404 26.7919C1.91154 26.6203 1.875 26.4403 1.875 26.25ZM15 0L0 8.4375V26.25C0 28.3209 1.67906 30 3.75 30H26.25C28.3209 30 30 28.3209 30 26.25V8.4375L15 0Z" fill="#144443"/>
</g>
<defs>
<clipPath id="clip0_1_1418">
<rect width="30" height="30" fill="white"/>
</clipPath>
</defs>
</svg>
