<svg width="43" height="33" viewBox="0 0 43 33" fill="none" xmlns="http://www.w3.org/2000/svg">
<path d="M1.13672 16.4101V8.80758C1.13672 7.40798 2.27132 6.27341 3.67089 6.27341H13.8076M1.13672 16.4101V29.0809C1.13672 30.4805 2.27132 31.6151 3.67089 31.6151H39.1492C40.5488 31.6151 41.6834 30.4805 41.6834 29.0809V16.4101M1.13672 16.4101L18.8759 18.9442H23.9442L41.6834 16.4101M13.8076 6.27341V3.73924C13.8076 2.33968 14.9422 1.20508 16.3417 1.20508H26.4784C27.878 1.20508 29.0126 2.33968 29.0126 3.73924V6.27341M13.8076 6.27341H29.0126M41.6834 16.4101V8.80758C41.6834 7.40798 40.5488 6.27341 39.1492 6.27341H29.0126M18.8759 22.7455H23.9442" stroke="white" stroke-width="2" stroke-linecap="round" stroke-linejoin="round"/>
</svg>
