<svg width="40" height="40" viewBox="0 0 40 40" fill="none" xmlns="http://www.w3.org/2000/svg">
<g clip-path="url(#clip0_1_509)">
<path d="M22.5173 6.03609C31.0284 6.29898 37.8136 13.2842 37.8136 21.8217C37.8136 30.5438 30.743 37.6145 22.0208 37.6145C13.4765 37.6145 6.48774 30.8187 6.23442 22.2999C6.2213 21.8583 5.85263 21.5109 5.41099 21.524C4.96935 21.5372 4.622 21.9058 4.63513 22.3475C4.91415 31.7304 12.6107 39.2145 22.0208 39.2145C31.6266 39.2145 39.4136 31.4276 39.4136 21.8217C39.4136 12.4191 31.9412 4.72644 22.5667 4.43691C22.1251 4.42328 21.756 4.77023 21.7424 5.21183C21.7287 5.65343 22.0757 6.0225 22.5173 6.03617L22.5173 6.03609Z" fill="white"/>
<path d="M2.01887 18.204H18.204V2.01887C9.44958 2.42434 2.42434 9.44958 2.01887 18.204ZM0.400391 19.004C0.400391 8.72938 8.72938 0.400391 19.004 0.400391C19.4458 0.400391 19.804 0.758555 19.804 1.20039V19.004C19.804 19.4458 19.4458 19.804 19.004 19.804H1.20039C0.758555 19.804 0.400391 19.4458 0.400391 19.004Z" fill="white"/>
<path d="M21.5458 5.25508V21.0983C21.5458 21.3164 21.3639 21.4983 21.1458 21.4983H5.47578C5.03395 21.4983 4.67578 21.8564 4.67578 22.2983C4.67578 22.7401 5.03395 23.0983 5.47578 23.0983H21.1458C22.2476 23.0983 23.1458 22.2001 23.1458 21.0983V5.25508C23.1458 4.81324 22.7876 4.45508 22.3458 4.45508C21.9039 4.45508 21.5458 4.81324 21.5458 5.25508Z" fill="white"/>
</g>
<defs>
<clipPath id="clip0_1_509">
<rect width="40" height="40" fill="white"/>
</clipPath>
</defs>
</svg>
