<svg width="19" height="18" viewBox="0 0 19 18" fill="none" xmlns="http://www.w3.org/2000/svg">
<path d="M13.2473 11.4436L12.7729 11.9153C12.7729 11.9153 11.6452 13.0366 8.56703 9.97592C5.48893 6.9153 6.61661 5.79401 6.61661 5.79401L6.91536 5.49694C7.65141 4.76513 7.72078 3.5902 7.07859 2.73246L5.76511 0.977879C4.97034 -0.0837457 3.43459 -0.223985 2.52364 0.681785L0.888644 2.3075C0.436957 2.75663 0.134269 3.33883 0.170977 3.98468C0.264884 5.63698 1.01246 9.19206 5.18397 13.3399C9.60766 17.7384 13.7584 17.9132 15.4558 17.755C15.9927 17.705 16.4595 17.4315 16.8358 17.0574L18.3156 15.5861C19.3144 14.5929 19.0328 12.8902 17.7547 12.1955L15.7646 11.1136C14.9255 10.6575 13.9032 10.7914 13.2473 11.4436Z" fill="#C8F169"/>
</svg>
