<svg width="19" height="25" viewBox="0 0 19 25" fill="none" xmlns="http://www.w3.org/2000/svg">
<path fill-rule="evenodd" clip-rule="evenodd" d="M2.27956 15.9744L9.5 25L16.7205 15.9744C18.1152 14.2311 18.875 12.0649 18.875 9.83228V9.375C18.875 4.19733 14.6777 0 9.5 0C4.32233 0 0.125 4.19733 0.125 9.375V9.83228C0.125 12.0649 0.884844 14.2311 2.27956 15.9744ZM9.5 12.5C11.2259 12.5 12.625 11.1009 12.625 9.375C12.625 7.64911 11.2259 6.25 9.5 6.25C7.77411 6.25 6.375 7.64911 6.375 9.375C6.375 11.1009 7.77411 12.5 9.5 12.5Z" fill="#C8F169"/>
</svg>
