<svg width="35" height="27" viewBox="0 0 35 27" fill="none" xmlns="http://www.w3.org/2000/svg">
<path d="M31.7188 0.75C33.4961 0.75 35 2.25391 35 4.03125V23.7188C35 25.5645 33.4961 27 31.7188 27H3.28125C1.43555 27 0 25.5645 0 23.7188V4.03125C0 2.25391 1.43555 0.75 3.28125 0.75H31.7188ZM31.7188 4.03125H3.28125V6.83398C4.78516 8.13281 7.24609 10.0469 12.4414 14.1484C13.6035 15.0371 15.8594 17.2246 17.5 17.1562C19.0723 17.2246 21.3281 15.0371 22.4902 14.1484C27.6855 10.0469 30.1465 8.13281 31.7188 6.83398V4.03125ZM3.28125 23.7188H31.7188V11.0723C30.1465 12.3027 27.8906 14.0801 24.541 16.7461C22.9688 17.9082 20.3711 20.5059 17.5 20.4375C14.5605 20.5059 11.8945 17.9082 10.3906 16.7461C7.04102 14.0801 4.78516 12.3027 3.28125 11.0723V23.7188Z" fill="#1A4137"/>
</svg>
