<svg width="36" height="36" viewBox="0 0 36 36" fill="none" xmlns="http://www.w3.org/2000/svg">
<path d="M2.46094 1.94727C1.02539 2.28906 0 3.58789 0 5.02344C0 21.8398 13.6719 35.375 30.4199 35.375C31.8555 35.375 33.1543 34.418 33.4961 32.9824L34.9316 26.5566C35.2734 25.0527 34.5215 23.5488 33.1543 22.9336L26.1816 19.9941C24.9512 19.4473 23.4473 19.7891 22.5586 20.8828L20.3027 23.6172C16.748 21.6348 13.7402 18.6953 11.8262 15.1406L14.5605 12.8848C15.6543 11.9961 15.9961 10.4922 15.4492 9.26172L12.4414 2.28906C11.8945 0.921875 10.3906 0.169922 8.88672 0.511719L2.46094 1.94727ZM30.2832 32.0938C15.4492 32.0254 3.34961 19.9941 3.28125 5.16016L9.50195 3.72461L12.373 10.4238L7.72461 14.252C10.9375 21.0195 14.4238 24.5059 21.1914 27.7188L25.0195 23.0703L31.7188 25.9414L30.2832 32.0938Z" fill="#1A4137"/>
</svg>
