<svg width="50" height="50" viewBox="0 0 50 50" fill="none" xmlns="http://www.w3.org/2000/svg">
<path d="M33.5938 23.9844V36.0938C33.5938 37.2656 32.6562 38.2031 31.4844 38.2031H11.4844C10.3125 38.2031 9.375 37.2656 9.375 36.0938V23.9844C9.375 22.8125 10.3125 21.875 11.4844 21.875H31.4844C32.6562 21.875 33.5938 22.8125 33.5938 23.9844Z" stroke="white" stroke-width="2" stroke-miterlimit="10" stroke-linecap="round" stroke-linejoin="round"/>
<path d="M9.375 26.1719H33.5938" stroke="white" stroke-width="2" stroke-miterlimit="10" stroke-linecap="round" stroke-linejoin="round"/>
<path d="M15.7031 18.75L17.1875 13.2812C17.5 12.1093 18.6719 11.4843 19.8437 11.7968L39.0625 16.9531C40.2344 17.2656 40.8594 18.4375 40.5469 19.6093L37.4219 31.3281" stroke="white" stroke-width="2" stroke-miterlimit="10" stroke-linecap="round" stroke-linejoin="round"/>
<path d="M16.5625 15.3906L40 21.6406" stroke="white" stroke-width="2" stroke-miterlimit="10" stroke-linecap="round" stroke-linejoin="round"/>
<path d="M25.3906 34.375H30.0781C30.3125 34.375 30.4688 34.5312 30.4688 34.7656C30.4688 35 30.3125 35.1562 30.0781 35.1562H25.3906C25.1562 35.1562 25 35 25 34.7656C25 34.5312 25.1562 34.375 25.3906 34.375Z" stroke="white" stroke-width="2" stroke-miterlimit="10" stroke-linecap="round" stroke-linejoin="round"/>
<path d="M21.4844 35.1562C21.7001 35.1562 21.875 34.9814 21.875 34.7656C21.875 34.5499 21.7001 34.375 21.4844 34.375C21.2686 34.375 21.0938 34.5499 21.0938 34.7656C21.0938 34.9814 21.2686 35.1562 21.4844 35.1562Z" stroke="white" stroke-width="2" stroke-miterlimit="10" stroke-linecap="round" stroke-linejoin="round"/>
</svg>
