<svg width="37" height="29" viewBox="0 0 37 29" fill="none" xmlns="http://www.w3.org/2000/svg">
<path d="M1.46875 14.4101V8.05758C1.46875 6.8881 2.4168 5.94008 3.58625 5.94008H12.0563M1.46875 14.4101V24.9976C1.46875 26.1671 2.4168 27.1151 3.58625 27.1151H33.2313C34.4007 27.1151 35.3488 26.1671 35.3488 24.9976V14.4101M1.46875 14.4101L16.2913 16.5276H20.5263L35.3488 14.4101M12.0563 5.94008V3.82258C12.0563 2.65313 13.0043 1.70508 14.1738 1.70508H22.6438C23.8132 1.70508 24.7613 2.65313 24.7613 3.82258V5.94008M12.0563 5.94008H24.7613M35.3488 14.4101V8.05758C35.3488 6.8881 34.4007 5.94008 33.2313 5.94008H24.7613M16.2913 19.7038H20.5263" stroke="white" stroke-width="2" stroke-linecap="round" stroke-linejoin="round"/>
</svg>
