<svg width="40" height="40" viewBox="0 0 40 40" fill="none" xmlns="http://www.w3.org/2000/svg">
<path d="M20 20L27.5 12.5" stroke="url(#paint0_linear_1_651)" stroke-width="2" stroke-miterlimit="10" stroke-linecap="round" stroke-linejoin="round"/>
<path d="M37.5 7.5H32.5V2.5L27.5 7.5V12.5H32.5L37.5 7.5Z" stroke="url(#paint1_linear_1_651)" stroke-width="2" stroke-miterlimit="10" stroke-linecap="round" stroke-linejoin="round"/>
<path d="M20 27.5C24.1421 27.5 27.5 24.1421 27.5 20C27.5 15.8579 24.1421 12.5 20 12.5C15.8579 12.5 12.5 15.8579 12.5 20C12.5 24.1421 15.8579 27.5 20 27.5Z" stroke="url(#paint2_linear_1_651)" stroke-width="2" stroke-miterlimit="10" stroke-linecap="round" stroke-linejoin="round"/>
<path d="M33.75 11.2495C35.375 13.7495 36.25 16.7495 36.25 19.9995C36.25 28.9995 29 36.2495 20 36.2495C11 36.2495 3.75 28.9995 3.75 19.9995C3.75 10.9995 11 3.74951 20 3.74951C23.25 3.74951 26.25 4.62451 28.75 6.24951" stroke="url(#paint3_linear_1_651)" stroke-width="2" stroke-miterlimit="10" stroke-linecap="round" stroke-linejoin="round"/>
<defs>
<linearGradient id="paint0_linear_1_651" x1="23.75" y1="12.5" x2="23.75" y2="20" gradientUnits="userSpaceOnUse">
<stop stop-color="#C8F169"/>
<stop offset="1" stop-color="#0E9894"/>
</linearGradient>
<linearGradient id="paint1_linear_1_651" x1="32.5" y1="2.5" x2="32.5" y2="12.5" gradientUnits="userSpaceOnUse">
<stop stop-color="#C8F169"/>
<stop offset="1" stop-color="#0E9894"/>
</linearGradient>
<linearGradient id="paint2_linear_1_651" x1="20" y1="12.5" x2="20" y2="27.5" gradientUnits="userSpaceOnUse">
<stop stop-color="#C8F169"/>
<stop offset="1" stop-color="#0E9894"/>
</linearGradient>
<linearGradient id="paint3_linear_1_651" x1="20" y1="3.74951" x2="20" y2="36.2495" gradientUnits="userSpaceOnUse">
<stop stop-color="#C8F169"/>
<stop offset="1" stop-color="#0E9894"/>
</linearGradient>
</defs>
</svg>
