<svg width="30" height="30" viewBox="0 0 30 30" fill="none" xmlns="http://www.w3.org/2000/svg">
<path d="M28.0567 5.9313L22.6996 3.78845C22.5717 3.73718 22.4289 3.73718 22.301 3.78845L16.9439 5.9313C16.8445 5.9711 16.7594 6.03972 16.6995 6.12833C16.6395 6.21693 16.6074 6.32146 16.6074 6.42845V11.9656C16.6102 12.983 16.875 13.9826 17.3762 14.8679C17.8774 15.7533 18.5983 16.4947 19.4692 17.0206L22.2249 18.6738C22.3081 18.7237 22.4033 18.75 22.5003 18.75C22.5973 18.75 22.6924 18.7237 22.7756 18.6738L25.1789 17.2317V23.2317C25.1786 23.4646 25.0859 23.6879 24.9212 23.8526C24.7565 24.0173 24.5332 24.11 24.3003 24.1102H3.55742C3.3245 24.11 3.10119 24.0173 2.93649 23.8526C2.77179 23.6879 2.67913 23.4646 2.67885 23.2317V11.2499H15.0003C15.1424 11.2499 15.2786 11.1934 15.3791 11.093C15.4796 10.9925 15.536 10.8562 15.536 10.7142C15.536 10.5721 15.4796 10.4358 15.3791 10.3354C15.2786 10.2349 15.1424 10.1784 15.0003 10.1784H2.67885V8.91416C2.67913 8.68124 2.77179 8.45793 2.93649 8.29323C3.10119 8.12853 3.3245 8.03587 3.55742 8.03559H15.0003C15.1424 8.03559 15.2786 7.97915 15.3791 7.87868C15.4796 7.77822 15.536 7.64196 15.536 7.49988C15.536 7.3578 15.4796 7.22153 15.3791 7.12107C15.2786 7.0206 15.1424 6.96416 15.0003 6.96416H3.55742C3.04034 6.96445 2.54451 7.16998 2.17888 7.53562C1.81324 7.90125 1.60771 8.39708 1.60742 8.91416V23.2284C1.60771 23.7455 1.81324 24.2414 2.17888 24.607C2.54451 24.9726 3.04034 25.1782 3.55742 25.1784H24.3003C24.8174 25.1782 25.3132 24.9726 25.6788 24.607C26.0445 24.2414 26.25 23.7455 26.2503 23.2284V16.4999C26.9176 15.9466 27.4554 15.2536 27.8257 14.4697C28.1959 13.6859 28.3896 12.8303 28.3931 11.9634V6.42845C28.3931 6.32146 28.3611 6.21693 28.3011 6.12833C28.2411 6.03972 28.156 5.9711 28.0567 5.9313ZM27.3217 11.9656C27.3195 12.7981 27.1029 13.616 26.6926 14.3404C26.2824 15.0648 25.6924 15.6713 24.9796 16.1013L22.5003 17.5895L20.021 16.1013C19.3082 15.6713 18.7182 15.0648 18.308 14.3404C17.8977 13.616 17.681 12.7981 17.6789 11.9656V6.79059L22.5003 4.86202L27.3217 6.79059V11.9656Z" fill="white"/>
<path d="M20.7376 10.4274C20.6878 10.3776 20.6288 10.338 20.5638 10.3111C20.4987 10.2841 20.429 10.2702 20.3587 10.2701C20.2883 10.2701 20.2186 10.2839 20.1535 10.3108C20.0885 10.3377 20.0293 10.3771 19.9795 10.4268C19.9297 10.4766 19.8902 10.5356 19.8632 10.6006C19.8362 10.6657 19.8223 10.7354 19.8223 10.8057C19.8222 10.8761 19.836 10.9458 19.8629 11.0109C19.8898 11.0759 19.9293 11.1351 19.979 11.1849L21.4083 12.6131C21.5087 12.7135 21.645 12.7699 21.787 12.7699C21.9291 12.7699 22.0653 12.7135 22.1658 12.6131L25.0233 9.75558C25.1237 9.65499 25.1801 9.51861 25.18 9.37645C25.1799 9.23429 25.1233 9.098 25.0227 8.99755C24.9222 8.8971 24.7858 8.84072 24.6436 8.84082C24.5015 8.84092 24.3652 8.89749 24.2647 8.99808L21.7865 11.4774L20.7376 10.4274Z" fill="white"/>
<path d="M5.35798 20.8926C5.2159 20.8926 5.07964 20.949 4.97917 21.0495C4.87871 21.15 4.82227 21.2862 4.82227 21.4283C4.82227 21.5704 4.87871 21.7066 4.97917 21.8071C5.07964 21.9076 5.2159 21.964 5.35798 21.964H9.64369C9.78577 21.964 9.92204 21.9076 10.0225 21.8071C10.123 21.7066 10.1794 21.5704 10.1794 21.4283C10.1794 21.2862 10.123 21.15 10.0225 21.0495C9.92204 20.949 9.78577 20.8926 9.64369 20.8926H5.35798Z" fill="white"/>
</svg>
