<svg width="20" height="20" viewBox="0 0 20 20" fill="none" xmlns="http://www.w3.org/2000/svg">
<path fill-rule="evenodd" clip-rule="evenodd" d="M10 12.91L1.25 6.25L9.98749 1.45687L18.75 6.25L10 12.91ZM18.75 17.5C18.75 17.6269 18.7256 17.7469 18.6906 17.8613L13.0844 12.2544L18.75 7.73438V17.5ZM2.22252 18.7163L7.96375 12.975L10 14.375L12.0362 12.975L17.7775 18.7163C17.6881 18.7369 2.31189 18.7369 2.22252 18.7163ZM1.25 17.5V7.73438L6.91624 12.2544L1.30936 17.8613C1.27436 17.7469 1.25 17.6269 1.25 17.5ZM10 0L0 5.625V17.5C0 18.8806 1.11937 20 2.5 20H17.5C18.8806 20 20 18.8806 20 17.5V5.625L10 0Z" fill="#C8F169"/>
</svg>
