<svg width="162" height="50" viewBox="0 0 162 50" fill="none" xmlns="http://www.w3.org/2000/svg">
<g clip-path="url(#clip0_1_946)">
<path d="M25.6476 0.404952C26.4595 0.641374 27.0781 1.30134 27.2615 2.12681L31.0091 18.9907L47.8731 22.7383C48.6987 22.9217 49.3587 23.5403 49.5949 24.3522C49.8315 25.1641 49.6068 26.0403 49.0087 26.6382L26.6383 49.0088C26.0782 49.5688 25.2707 49.8041 24.4975 49.6323L6.19416 45.5647C5.31604 45.3697 4.63023 44.6838 4.43507 43.8057L0.367713 25.5025C0.195878 24.7293 0.43101 23.9218 0.991131 23.3617L23.3616 0.991143C23.9596 0.393211 24.8358 0.168532 25.6476 0.404952ZM26.5297 20.1937L23.6538 7.25201L5.16695 25.7389L8.04285 38.6804L26.5297 20.1937ZM11.3194 41.9569L24.2611 44.8329L42.7481 26.3461L29.8062 23.4702L11.3194 41.9569Z" fill="white"/>
</g>
<path d="M60.8 42V14H77.84V16.76H64.16V26.6H75.8V29.32H64.16V42H60.8ZM80.7331 42V22.16H84.0931V42H80.7331ZM82.4131 18.2C81.7465 18.2 81.1865 17.9733 80.7331 17.52C80.2798 17.0667 80.0531 16.5067 80.0531 15.84C80.0531 15.2 80.2798 14.6533 80.7331 14.2C81.1865 13.7467 81.7465 13.52 82.4131 13.52C83.0531 13.52 83.5998 13.7467 84.0531 14.2C84.5065 14.6533 84.7331 15.2133 84.7331 15.88C84.7331 16.52 84.5065 17.0667 84.0531 17.52C83.5998 17.9733 83.0531 18.2 82.4131 18.2ZM87.9438 42V22.16H90.9038L91.2238 25.28H91.3838C92.0771 24.1867 92.9838 23.32 94.1038 22.68C95.2238 22.0133 96.5704 21.68 98.1438 21.68C99.6638 21.68 100.997 22 102.144 22.64C103.29 23.2533 104.17 24.2133 104.784 25.52C105.424 26.8 105.744 28.4267 105.744 30.4V42H102.384V30.76C102.384 28.7067 101.944 27.16 101.064 26.12C100.184 25.08 98.9171 24.56 97.2638 24.56C96.1171 24.56 95.0904 24.84 94.1838 25.4C93.3038 25.96 92.5971 26.7733 92.0638 27.84C91.5571 28.88 91.3038 30.1733 91.3038 31.72V42H87.9438ZM118.085 42.48C116.005 42.48 114.218 42.0533 112.725 41.2C111.258 40.32 110.125 39.1067 109.325 37.56C108.525 35.9867 108.125 34.16 108.125 32.08C108.125 30 108.552 28.1867 109.405 26.64C110.285 25.0667 111.472 23.8533 112.965 23C114.485 22.12 116.192 21.68 118.085 21.68C120.458 21.68 122.445 22.2933 124.045 23.52C125.645 24.7467 126.658 26.3867 127.085 28.44H123.645C123.378 27.08 122.725 26.0533 121.685 25.36C120.645 24.64 119.432 24.28 118.045 24.28C116.925 24.28 115.872 24.5733 114.885 25.16C113.898 25.72 113.098 26.5733 112.485 27.72C111.872 28.8667 111.565 30.32 111.565 32.08C111.565 33.3333 111.725 34.44 112.045 35.4C112.392 36.3333 112.858 37.12 113.445 37.76C114.032 38.4 114.712 38.88 115.485 39.2C116.285 39.52 117.138 39.68 118.045 39.68C118.978 39.68 119.832 39.5333 120.605 39.24C121.378 38.92 122.032 38.4667 122.565 37.88C123.098 37.2667 123.458 36.5467 123.645 35.72H127.085C126.658 37.72 125.645 39.3467 124.045 40.6C122.445 41.8533 120.458 42.48 118.085 42.48ZM129.902 42V14H133.262V42H129.902ZM137.335 42V22.16H140.695V42H137.335ZM139.015 18.2C138.348 18.2 137.788 17.9733 137.335 17.52C136.881 17.0667 136.655 16.5067 136.655 15.84C136.655 15.2 136.881 14.6533 137.335 14.2C137.788 13.7467 138.348 13.52 139.015 13.52C139.655 13.52 140.201 13.7467 140.655 14.2C141.108 14.6533 141.335 15.2133 141.335 15.88C141.335 16.52 141.108 17.0667 140.655 17.52C140.201 17.9733 139.655 18.2 139.015 18.2ZM143.145 42L150.025 32.08L143.145 22.16H146.785L152.265 30.52H152.425L157.945 22.16H161.545L154.665 32.08L161.545 42H157.945L152.425 33.6H152.265L146.785 42H143.145Z" fill="white"/>
<defs>
<clipPath id="clip0_1_946">
<rect width="50" height="50" fill="white"/>
</clipPath>
</defs>
</svg>
