<svg width="43" height="43" viewBox="0 0 43 43" fill="none" xmlns="http://www.w3.org/2000/svg">
<path d="M21.1298 38.7382C18.694 38.7382 16.4049 38.2759 14.2626 37.3515C12.1203 36.4271 10.2567 35.1725 8.67192 33.5877C7.08717 32.003 5.83258 30.1394 4.90814 27.9971C3.9837 25.8547 3.52148 23.5657 3.52148 21.1298V4.4019L14.1305 12.3697C15.0402 10.9903 16.0747 9.56704 17.234 8.09965C18.3932 6.63229 19.6918 5.10623 21.1298 3.52148C22.4504 4.98885 23.7123 6.47821 24.9156 7.9896C26.1189 9.50101 27.1754 10.961 28.0851 12.3697L38.7382 4.4019V21.1298C38.7382 23.5657 38.2759 25.8547 37.3515 27.9971C36.4271 30.1394 35.1725 32.003 33.5877 33.5877C32.003 35.1725 30.1394 36.4271 27.9971 37.3515C25.8547 38.2759 23.5657 38.7382 21.1298 38.7382ZM21.1298 36.0969C25.3083 36.0969 28.8474 34.647 31.7472 31.7472C34.647 28.8471 36.0969 25.308 36.0969 21.1298V9.6844L27.3808 16.1995C26.2362 14.3506 25.2164 12.8026 24.3213 11.5553C23.4262 10.308 22.3624 8.93605 21.1298 7.43934C19.8972 8.93605 18.8187 10.3227 17.8943 11.5993C16.9698 12.8759 15.9647 14.4093 14.8789 16.1995L6.16273 9.6844V21.1298C6.16273 25.308 7.61263 28.8471 10.5124 31.7472C13.4125 34.647 16.9516 36.0969 21.1298 36.0969Z" fill="black"/>
</svg>
