<svg width="30" height="30" viewBox="0 0 30 30" fill="none" xmlns="http://www.w3.org/2000/svg">
<g clip-path="url(#clip0_466_1627)">
<path d="M15.7427 14.2587C15.5136 14.0296 15.1427 14.0296 14.9136 14.2587C14.6851 14.4873 14.6851 14.8582 14.9136 15.0873C15.1427 15.3158 15.5136 15.3158 15.7427 15.0873C15.9712 14.8582 15.9712 14.4873 15.7427 14.2587Z" fill="white"/>
<path d="M23.199 6.80105C22.0541 5.65619 20.2006 5.65613 19.0557 6.80105C17.9137 7.94298 17.9137 9.80157 19.0558 10.9444C20.1982 12.0861 22.0568 12.0865 23.199 10.9443C24.3438 9.79952 24.344 7.94603 23.199 6.80105ZM22.3704 10.1156C21.6852 10.8008 20.57 10.8008 19.8845 10.1158C19.1992 9.43009 19.1992 8.31482 19.8844 7.62968C20.5713 6.94279 21.6834 6.94267 22.3704 7.62968C23.0573 8.31652 23.0574 9.42868 22.3704 10.1156Z" fill="white"/>
<path d="M29.8292 0.171627C29.7141 0.0566072 29.5571 -0.00573643 29.3938 0.000415898C29.2613 0.00516198 26.107 0.131959 22.3573 1.45729C19.3526 2.51818 16.8481 4.03711 14.9134 5.97187C14.4799 6.4054 14.058 6.86513 13.6543 7.34273C11.7414 6.21667 10.2084 6.56976 9.23937 7.08837C7.00806 8.28251 5.62695 11.5248 5.62695 13.844C5.62713 14.0809 5.76992 14.2946 5.98883 14.3853C6.06131 14.4153 6.13748 14.4299 6.21295 14.4299C6.36547 14.4299 6.51529 14.3703 6.62738 14.2583C7.80412 13.0816 9.25554 13.1552 9.72968 13.2175L9.93487 13.4227C9.53105 14.3836 9.20574 15.3392 8.96714 16.2685C8.88101 16.6049 8.91007 16.9608 9.0381 17.2863C8.47396 17.5463 7.92968 17.928 7.45578 18.4019C5.94752 19.9102 5.64125 23.5861 5.62895 23.7418C5.61547 23.9127 5.67746 24.081 5.79869 24.2022C5.90902 24.3125 6.05826 24.3738 6.21295 24.3738C6.2283 24.3738 6.24371 24.3733 6.25912 24.372C6.41486 24.3598 10.0908 24.0535 11.5991 22.5453C12.0728 22.0715 12.4545 21.5273 12.7144 20.9633C13.0591 21.0988 13.4138 21.1155 13.7328 21.0338C14.6617 20.7952 15.6172 20.47 16.5782 20.0662L16.7834 20.2714C16.8457 20.7456 16.9193 22.197 15.7426 23.3736C15.5751 23.5412 15.5249 23.7932 15.6156 24.0121C15.7063 24.2311 15.9199 24.3738 16.1569 24.3738C18.4761 24.3738 21.7183 22.9927 22.9125 20.7614C23.4311 19.7924 23.7842 18.2595 22.6581 16.3465C23.1355 15.943 23.5953 15.5211 24.029 15.0874C25.9637 13.1526 27.4826 10.6482 28.5435 7.64372C29.8689 3.89385 29.9956 0.739399 30.0004 0.606977C30.0062 0.44438 29.9442 0.286704 29.8292 0.171627ZM6.93699 12.5837C7.30097 10.8222 8.35818 8.88925 9.79255 8.12155C10.7511 7.60862 11.7988 7.6589 12.9128 8.26868C11.9637 9.51684 11.1387 10.8616 10.451 12.2816C10.4422 12.2762 10.3368 12.1436 10.1408 12.0994C10.0603 12.0812 8.50994 11.7477 6.93699 12.5837ZM10.7704 21.7166C9.96476 22.5222 8.07482 22.9471 6.88027 23.1206C7.05383 21.926 7.4788 20.0362 8.28441 19.2306C8.73558 18.7794 9.2587 18.4373 9.78452 18.2447L11.7563 20.2165C11.5637 20.7423 11.2216 21.2654 10.7704 21.7166ZM13.4417 19.8986C13.2721 19.942 13.0757 19.8783 12.9297 19.7325C12.1717 18.9744 11.8751 18.6779 11.7821 18.5849C11.6115 18.4143 11.1931 17.9959 10.2689 17.0716C10.1227 16.9252 10.059 16.7288 10.1023 16.5596C10.29 15.8287 10.5354 15.0788 10.8339 14.3217L15.6793 19.1671C14.9221 19.4656 14.1723 19.711 13.4417 19.8986ZM21.8794 20.2084C21.1117 21.6427 19.1788 22.7 17.4174 23.0639C17.979 22.0071 18.1028 20.6617 17.8976 19.8459C17.85 19.6564 17.7264 19.5611 17.7194 19.55C19.1393 18.8622 20.484 18.0372 21.7323 17.0881C22.3421 18.2022 22.3923 19.2501 21.8794 20.2084ZM23.2005 14.2588C22.6725 14.7867 22.104 15.2968 21.5106 15.7747C20.0843 16.9231 18.5145 17.8959 16.8397 18.6703L11.3307 13.1614C12.1051 11.4865 13.0778 9.91663 14.2262 8.49052C14.7045 7.89679 15.2145 7.3282 15.7423 6.8005C17.4781 5.06461 19.7184 3.68308 22.4027 2.68863L27.3123 7.59831C26.318 10.2825 24.9365 12.5228 23.2005 14.2588ZM27.7339 6.36251L23.6385 2.26705C25.8698 1.57401 27.8109 1.3145 28.7798 1.22121C28.6865 2.19029 28.4269 4.13144 27.7339 6.36251Z" fill="white"/>
<path d="M14.085 24.2018C13.8561 23.973 13.485 23.9731 13.2563 24.2019L11.5993 25.8596C11.3705 26.0884 11.3706 26.4594 11.5994 26.6882C11.8283 26.9169 12.1993 26.9169 12.4281 26.6881L14.0851 25.0305C14.3138 24.8016 14.3138 24.4306 14.085 24.2018Z" fill="white"/>
<path d="M5.79856 15.9158C5.56981 15.6869 5.19886 15.6869 4.96993 15.9157L3.31232 17.5727C3.08345 17.8015 3.08339 18.1725 3.31214 18.4013C3.54083 18.6301 3.91179 18.6303 4.14077 18.4015L5.79839 16.7444C6.02726 16.5157 6.02731 16.1447 5.79856 15.9158Z" fill="white"/>
<path d="M9.94208 25.031C9.71339 24.8022 9.34231 24.8022 9.11345 25.0309L5.14431 28.9995C4.91545 29.2283 4.91545 29.5993 5.14426 29.8281C5.37295 30.0569 5.74402 30.057 5.97289 29.8282L9.94202 25.8596C10.1709 25.6308 10.1709 25.2598 9.94208 25.031Z" fill="white"/>
<path d="M5.25458 25.031C5.02583 24.8022 4.65476 24.8022 4.42595 25.0309L0.456814 28.9995C0.227947 29.2283 0.227947 29.5993 0.456755 29.8281C0.685446 30.0569 1.05652 30.057 1.28539 29.8282L5.25452 25.8596C5.48339 25.6308 5.48339 25.2598 5.25458 25.031Z" fill="white"/>
<path d="M4.96878 20.0593C4.74003 19.8305 4.36895 19.8305 4.14015 20.0593L0.171599 24.0284C-0.0572094 24.2573 -0.0572094 24.6283 0.171657 24.8571C0.400466 25.0859 0.771481 25.0859 1.00029 24.8571L4.96884 20.8879C5.19764 20.6591 5.19764 20.2881 4.96878 20.0593Z" fill="white"/>
<path d="M18.2272 11.7722C17.9984 11.5434 17.6275 11.5434 17.3986 11.7722L16.57 12.6007C16.3412 12.8295 16.3412 13.2005 16.57 13.4294C16.7989 13.6582 17.1699 13.6582 17.3987 13.4294L18.2272 12.6009C18.4561 12.3721 18.4561 12.0011 18.2272 11.7722Z" fill="white"/>
</g>
<defs>
<clipPath id="clip0_466_1627">
<rect width="30" height="30" fill="white"/>
</clipPath>
</defs>
</svg>
